<svg width="177" height="52" viewBox="0 0 177 52" fill="none" xmlns="http://www.w3.org/2000/svg">
<path d="M97.464 5.99002V2.16116C97.4682 1.57836 97.9071 1.18859 98.438 1.18859H115.59C116.142 1.18859 116.58 1.58944 116.58 2.15774V5.44729C116.574 5.99027 116.11 6.71259 115.289 7.85604L106.397 20.5546C109.696 20.4773 113.188 20.9707 116.186 22.659C116.861 23.0409 117.045 23.5976 117.096 24.1511V28.2458C117.096 28.8117 116.479 29.4655 115.836 29.125C110.551 26.3497 103.545 26.048 97.7077 29.1582C97.1097 29.4781 96.4875 28.8376 96.4875 28.2716V24.3763C96.4875 23.7556 96.4975 22.691 97.1245 21.7437L107.417 6.95837H98.4569C97.9095 6.9581 97.4704 6.56728 97.464 5.99002ZM34.8942 29.9312H29.6751C29.1785 29.9009 28.7783 29.5269 28.7415 29.0493L28.7462 2.22657C28.7462 1.69176 29.1932 1.26059 29.752 1.26059L34.6118 1.25874C35.121 1.28669 35.528 1.67171 35.5615 2.16116V5.66433H35.6571C36.9208 2.2772 39.3112 0.694133 42.5233 0.694133C45.7896 0.694133 47.8299 2.2772 49.2954 5.66433C50.563 2.2772 53.4344 0.694133 56.5066 0.694133C58.7 0.694133 61.0846 1.59893 62.5482 3.6311C64.2065 5.88268 63.8638 9.16169 63.8638 12.0341L63.8617 28.9642C63.8617 29.5021 63.4067 29.9309 62.853 29.9309H57.642C57.1159 29.9006 56.705 29.4837 56.705 28.9697L56.7029 14.7461C56.7029 13.6184 56.7982 10.7996 56.5543 9.72234C56.1618 7.91722 54.9935 7.40931 53.4835 7.40931C52.2224 7.40931 50.9042 8.25636 50.3665 9.61132C49.8333 10.9671 49.8797 13.2197 49.8797 14.7461V28.9636C49.8797 29.5016 49.4287 29.9304 48.8728 29.9304H43.6608C43.136 29.9001 42.7224 29.4831 42.7224 28.9692L42.7158 14.7455C42.7158 11.7521 43.2056 7.35262 39.5048 7.35262C35.7504 7.35262 35.8976 11.6461 35.8976 14.7455L35.8955 28.9631C35.895 29.5024 35.453 29.9312 34.8942 29.9312ZM131.352 0.694399C139.09 0.694399 143.288 7.35394 143.288 15.8194C143.288 23.9984 138.651 30.4974 131.352 30.4974C123.749 30.4974 119.605 23.8257 119.605 15.5338C119.605 7.18595 123.796 0.694399 131.352 0.694399ZM131.401 6.16644C127.547 6.16644 127.303 11.4214 127.303 14.6846C127.303 17.9597 127.254 24.9552 131.351 24.9552C135.386 24.9552 135.578 19.3136 135.578 15.8798C135.578 13.6192 135.483 10.9114 134.799 8.76507C134.216 6.89956 133.047 6.16644 131.401 6.16644ZM153.329 29.9312H148.125C147.6 29.9009 147.189 29.4839 147.189 28.9699L147.178 2.13743C147.224 1.64534 147.656 1.26033 148.182 1.26033L153.029 1.25847C153.487 1.28274 153.862 1.59472 153.956 2.01191V6.11159H154.055C155.515 2.44651 157.553 0.693868 161.159 0.693868C163.5 0.693868 165.795 1.54197 167.256 3.85869C168.612 5.99634 168.612 9.61158 168.612 12.2063V29.0839C168.552 29.5644 168.124 29.9309 167.622 29.9309H162.382C161.906 29.9027 161.511 29.5417 161.451 29.0839V14.5214C161.451 11.5915 161.797 7.29592 158.185 7.29592C156.916 7.29592 155.76 8.14507 155.172 9.44412C154.442 11.0818 154.347 12.7134 154.347 14.5217V28.9644C154.333 29.5024 153.885 29.9312 153.329 29.9312ZM24.6664 25.0098C23.717 23.6862 22.7014 22.6179 22.7014 20.1691V12.0275C22.7014 8.58284 22.9478 5.41697 20.4053 3.04144C18.4014 1.11555 15.0829 0.437012 12.5416 0.437012C7.57452 0.437012 2.03555 2.29276 0.871966 8.43648C0.748152 9.09365 1.22339 9.43464 1.65173 9.53115L6.71019 10.0799C7.18042 10.0557 7.52579 9.58653 7.61641 9.11686C8.0516 6.99792 9.82267 5.97762 11.8132 5.97762C12.8832 5.97762 14.104 6.37583 14.7418 7.33706C15.4739 8.40905 15.3756 9.88321 15.3756 11.1277V11.8004C12.3466 12.1414 8.39117 12.3666 5.56373 13.6124C2.29214 15.0296 0 17.909 0 22.1551C0 27.5886 3.41516 30.3035 7.80555 30.3035C11.5239 30.3035 13.5463 29.4254 16.4141 26.5032C17.3624 27.8766 17.6719 28.5393 19.4043 29.9879C19.7939 30.1944 20.2913 30.178 20.6382 29.8647L20.6498 29.8774C21.6927 28.9467 23.5897 27.2985 24.6501 26.4053C25.0734 26.0536 24.9986 25.4834 24.6664 25.0098ZM14.3977 22.6625C13.5663 24.1258 12.2513 25.0322 10.7874 25.0322C8.78421 25.0322 7.61298 23.504 7.61298 21.2474C7.61298 16.7996 11.6024 15.9926 15.3764 15.9926V17.1213C15.3764 19.1517 15.4241 20.8508 14.3977 22.6625ZM93.0834 25.0098C92.1266 23.6862 91.1129 22.6179 91.1129 20.1691V12.0275C91.1129 8.58284 91.3574 5.41697 88.8147 3.04144C86.8197 1.11555 83.4965 0.437012 80.9602 0.437012C75.9942 0.437012 70.452 2.29276 69.2895 8.43648C69.1657 9.09365 69.6409 9.43464 70.0685 9.53115L75.1238 10.0799C75.6014 10.0557 75.9441 9.58653 76.0331 9.11686C76.471 6.99792 78.2344 5.97762 80.2278 5.97762C81.3005 5.97762 82.5239 6.37583 83.1553 7.33706C83.8856 8.40905 83.7881 9.88321 83.7881 11.1277V11.8004C80.7631 12.1414 76.8097 12.3666 73.9805 13.6124C70.7089 15.0296 68.4136 17.909 68.4136 22.1551C68.4136 27.5886 71.8266 30.3035 76.2231 30.3035C79.9317 30.3035 81.9649 29.4254 84.8295 26.5032C85.7757 27.8766 86.0876 28.5393 87.8197 29.9879C88.2122 30.1944 88.7046 30.178 89.0497 29.8647L89.061 29.8774C90.1063 28.9467 92.0028 27.2985 93.0686 26.4053C93.4933 26.0536 93.4206 25.4834 93.0834 25.0098ZM82.811 22.6625C81.9862 24.1258 80.6659 25.0322 79.2007 25.0322C77.1975 25.0322 76.0313 23.504 76.0313 21.2474C76.0313 16.7996 80.0155 15.9926 83.7886 15.9926V17.1213C83.7886 19.1517 83.8392 20.8508 82.811 22.6625Z" fill="#F3F3F3"/>
<path d="M104.433 40.3541C94.4767 47.468 80.6087 51.31 68.3738 51.31C51.2356 51.31 35.9598 45.0999 24.1904 34.4606C23.1019 33.4764 23.8047 32.3221 25.1582 33.1009C37.9616 40.5131 53.3059 44.8496 69.4059 44.8496C80.2634 44.8496 91.7957 42.6853 102.755 38.0181C105.151 36.9957 106.144 39.1296 104.433 40.3541Z" fill="#F9A51B"/>
<path d="M108.687 35.5526C107.428 33.9424 100.397 34.7913 97.2378 35.1647C96.2871 35.2815 96.1322 34.4443 96.9989 33.839C102.607 29.9147 111.8 31.0571 112.863 32.3525C113.938 33.685 112.579 42.9184 107.325 47.3259C106.515 48.0084 105.754 47.6381 106.111 46.7449C107.29 43.7839 109.94 37.1571 108.687 35.5526Z" fill="#F9A51B"/>
<path d="M174.548 25.5513C175.136 25.5513 175.636 25.7583 176.048 26.1724C176.46 26.5827 176.668 27.0817 176.668 27.6658C176.668 28.2536 176.461 28.7533 176.048 29.1663C175.637 29.5806 175.138 29.7881 174.548 29.7881C173.96 29.7881 173.461 29.5806 173.05 29.1663C172.64 28.7533 172.435 28.2531 172.435 27.6658C172.435 27.0817 172.64 26.5827 173.054 26.1724C173.467 25.7583 173.966 25.5513 174.548 25.5513ZM177 27.6608C177 26.9846 176.759 26.4084 176.282 25.9327C175.804 25.4564 175.223 25.2183 174.546 25.2183C173.872 25.2183 173.298 25.4564 172.819 25.9327C172.342 26.4108 172.102 26.9862 172.102 27.6608C172.102 28.3409 172.339 28.9208 172.813 29.3986C173.289 29.8804 173.868 30.1212 174.545 30.1212C175.223 30.1212 175.803 29.8804 176.282 29.3986C176.759 28.92 177 28.3404 177 27.6608ZM175.197 27.1315C175.197 27.3335 175.104 27.4709 174.917 27.5447C174.813 27.5853 174.661 27.6033 174.459 27.6033H174.025V26.6442H174.434C174.702 26.6442 174.894 26.6747 175.017 26.7412C175.136 26.8082 175.197 26.9363 175.197 27.1315ZM173.562 26.3108V28.9933H174.025V27.9361H174.404C174.66 27.9361 174.838 27.9659 174.939 28.0215C175.112 28.1238 175.197 28.3264 175.197 28.6376V28.8501L175.207 28.9358L175.213 28.9661C175.217 28.9738 175.219 28.9843 175.221 28.9933H175.661L175.644 28.959C175.63 28.9358 175.623 28.891 175.619 28.8203C175.613 28.7488 175.613 28.6829 175.613 28.6201V28.4253C175.613 28.2897 175.562 28.1505 175.467 28.0073C175.369 27.8659 175.217 27.7784 175.006 27.7459C175.172 27.7196 175.301 27.6769 175.395 27.6162C175.572 27.5012 175.661 27.3251 175.661 27.0864C175.661 26.7499 175.52 26.5236 175.241 26.4071C175.085 26.3435 174.84 26.3113 174.505 26.3113L173.562 26.3108Z" fill="#F3F3F3"/>
</svg>
